<svg id="Layer_1" data-name="Layer 1" xmlns="http://www.w3.org/2000/svg" viewBox="0 0 64 64"><defs><style>.cls-1{fill:#c8aa88;}</style></defs><path class="cls-1" d="M47.34,44.82l0-1.68,0,0-.08-7.49V15.69c-4,3.62-8,7.21-12,10.83l-3.24,3h0l0,.05h0l0,0,0,0-3.24-3-12-10.82V35.64l-.08,7.49,0,0,0,1.68,0,7.92,5.05,5.19L7.32,57.81l5.09-5s.14-31.18.14-46.72L32,23.53,51.45,6.06c0,15.54.14,46.71.14,46.71l5.09,5-14.41.13,5-5.19Z"/><path class="cls-1" d="M41.07,40.37c-3,2.6-5.84,5.17-8.78,7.74l0,0,0,0c-2.94-2.57-5.81-5.14-8.78-7.74,1.59-1.52,3.24-3,4.86-4.42h7.91C37.83,37.4,39.49,38.85,41.07,40.37Z"/></svg>